    <svg
            xmlns="http://www.w3.org/2000/svg"
            width="20"
            height="18"
            viewBox="0 0 16 18"
            fill="none"
          >
            <path
              d="M12.1654 7.33333V5.66667C12.1654 3.36548 10.2999 1.5 7.9987 1.5C5.69751 1.5 3.83203 3.36548 3.83203 5.66667V7.33333M7.9987 11.0833V12.75M5.33203 16.5H10.6654C12.0655 16.5 12.7656 16.5 13.3003 16.2275C13.7707 15.9878 14.1532 15.6054 14.3929 15.135C14.6654 14.6002 14.6654 13.9001 14.6654 12.5V11.3333C14.6654 9.9332 14.6654 9.23314 14.3929 8.69836C14.1532 8.22795 13.7707 7.8455 13.3003 7.60582C12.7656 7.33333 12.0655 7.33333 10.6654 7.33333H5.33203C3.9319 7.33333 3.23183 7.33333 2.69705 7.60582C2.22665 7.8455 1.8442 8.22795 1.60451 8.69836C1.33203 9.23314 1.33203 9.9332 1.33203 11.3333V12.5C1.33203 13.9001 1.33203 14.6002 1.60451 15.135C1.8442 15.6054 2.22665 15.9878 2.69705 16.2275C3.23183 16.5 3.9319 16.5 5.33203 16.5Z"
              stroke="#454F58"
              stroke-width="1.66667"
              stroke-linecap="round"
              stroke-linejoin="round"
            />
          </svg>