<svg width="20" height="16" viewBox="0 0 20 16" fill="none" xmlns="http://www.w3.org/2000/svg">
<path d="M1.66797 3.83325L5.99617 6.71872C6.24587 6.88519 6.37072 6.96842 6.5058 7.02739C6.62569 7.07972 6.75133 7.11776 6.88012 7.14072C7.02521 7.16659 7.17526 7.16659 7.47537 7.16659H12.5272C12.8273 7.16659 12.9774 7.16659 13.1225 7.14072C13.2513 7.11776 13.3769 7.07972 13.4968 7.02739C13.6319 6.96842 13.7567 6.88518 14.0064 6.71872L18.3346 3.83325M5.66797 14.6666H14.3346C15.7348 14.6666 16.4348 14.6666 16.9696 14.3941C17.44 14.1544 17.8225 13.772 18.0622 13.3016C18.3346 12.7668 18.3346 12.0667 18.3346 10.6666V5.33325C18.3346 3.93312 18.3346 3.23306 18.0622 2.69828C17.8225 2.22787 17.44 1.84542 16.9696 1.60574C16.4348 1.33325 15.7348 1.33325 14.3346 1.33325H5.66797C4.26784 1.33325 3.56777 1.33325 3.03299 1.60574C2.56259 1.84542 2.18014 2.22787 1.94045 2.69828C1.66797 3.23306 1.66797 3.93312 1.66797 5.33325V10.6666C1.66797 12.0667 1.66797 12.7668 1.94045 13.3016C2.18014 13.772 2.56259 14.1544 3.03299 14.3941C3.56777 14.6666 4.26784 14.6666 5.66797 14.6666Z" stroke="#454F58" stroke-width="1.66667" stroke-linecap="round" stroke-linejoin="round"/>
</svg>
